<?xml version="1.0" encoding="UTF-8"?>
<svg xmlns="http://www.w3.org/2000/svg" xmlns:xlink="http://www.w3.org/1999/xlink" width="102.633723pt" height="85.03937pt" viewBox="0 0 102.633723 85.03937" version="1.1">
<g id="surface57">
<rect x="0" y="0" width="102.633723" height="85.03937" style="fill:rgb(0%,16.862745%,21.176471%);fill-opacity:1;stroke:none;"/>
<path style="fill:none;stroke-width:0.05;stroke-linecap:round;stroke-linejoin:round;stroke:rgb(14.901961%,54.509804%,82.352941%);stroke-opacity:1;stroke-miterlimit:10;" d="M -6.800184 -5.600143 L 6.80006 -5.600143 L 6.80006 5.599652 L -6.800184 5.599652 Z M -6.800184 -5.600143 " transform="matrix(7.33098,0,0,-7.33098,51.316861,42.519685)"/>
<path style="fill:none;stroke-width:0.05;stroke-linecap:round;stroke-linejoin:round;stroke:rgb(14.901961%,54.509804%,82.352941%);stroke-opacity:1;stroke-miterlimit:10;" d="M -0.000062066 -0.350056 L -0.000062066 0.350098 " transform="matrix(7.33098,0,0,-7.33098,51.316861,42.519685)"/>
<path style="fill:none;stroke-width:0.05;stroke-linecap:round;stroke-linejoin:round;stroke:rgb(14.901961%,54.509804%,82.352941%);stroke-opacity:1;stroke-miterlimit:10;" d="M -0.350139 0.000020978 L 0.350015 0.000020978 " transform="matrix(7.33098,0,0,-7.33098,51.316861,42.519685)"/>
<path style="fill:none;stroke-width:0.05;stroke-linecap:round;stroke-linejoin:round;stroke:rgb(14.901961%,54.509804%,82.352941%);stroke-opacity:1;stroke-miterlimit:10;" d="M 0.249841 0.000020978 C 0.249841 0.33358 -0.249965 0.33358 -0.249965 0.000020978 C -0.249965 -0.333538 0.249841 -0.333538 0.249841 0.000020978 " transform="matrix(7.33098,0,0,-7.33098,51.316861,42.519685)"/>
<path style=" stroke:none;fill-rule:nonzero;fill:rgb(79.607843%,29.411765%,8.627451%);fill-opacity:1;" d="M 94.09375 16.496094 C 94.09375 12.101562 90.53125 8.539062 86.140625 8.539062 C 81.746094 8.539062 78.183594 12.101562 78.183594 16.496094 C 78.183594 20.886719 81.746094 24.449219 86.140625 24.449219 C 90.53125 24.449219 94.09375 20.886719 94.09375 16.496094 Z M 94.09375 16.496094 "/>
<path style=" stroke:none;fill-rule:nonzero;fill:rgb(0%,16.862745%,21.176471%);fill-opacity:1;" d="M 91.527344 16.496094 C 91.527344 9.308594 80.75 9.308594 80.75 16.496094 C 80.75 23.679688 91.527344 23.679688 91.527344 16.496094 Z M 91.527344 16.496094 "/>
<path style=" stroke:none;fill-rule:nonzero;fill:rgb(79.607843%,29.411765%,8.627451%);fill-opacity:1;" d="M 94.09375 68.542969 C 94.09375 64.152344 90.53125 60.589844 86.140625 60.589844 C 81.746094 60.589844 78.183594 64.152344 78.183594 68.542969 C 78.183594 72.9375 81.746094 76.5 86.140625 76.5 C 90.53125 76.5 94.09375 72.9375 94.09375 68.542969 Z M 94.09375 68.542969 "/>
<path style=" stroke:none;fill-rule:nonzero;fill:rgb(0%,16.862745%,21.176471%);fill-opacity:1;" d="M 91.527344 68.542969 C 91.527344 61.359375 80.75 61.359375 80.75 68.542969 C 80.75 75.730469 91.527344 75.730469 91.527344 68.542969 Z M 91.527344 68.542969 "/>
<path style=" stroke:none;fill-rule:nonzero;fill:rgb(79.607843%,29.411765%,8.627451%);fill-opacity:1;" d="M 24.449219 68.542969 C 24.449219 64.152344 20.886719 60.589844 16.496094 60.589844 C 12.101562 60.589844 8.539062 64.152344 8.539062 68.542969 C 8.539062 72.9375 12.101562 76.5 16.496094 76.5 C 20.886719 76.5 24.449219 72.9375 24.449219 68.542969 Z M 24.449219 68.542969 "/>
<path style=" stroke:none;fill-rule:nonzero;fill:rgb(0%,16.862745%,21.176471%);fill-opacity:1;" d="M 21.882812 68.542969 C 21.882812 61.359375 11.105469 61.359375 11.105469 68.542969 C 11.105469 75.730469 21.882812 75.730469 21.882812 68.542969 Z M 21.882812 68.542969 "/>
<path style=" stroke:none;fill-rule:nonzero;fill:rgb(79.607843%,29.411765%,8.627451%);fill-opacity:1;" d="M 24.449219 42.519531 C 24.449219 38.125 20.886719 34.566406 16.496094 34.566406 C 12.101562 34.566406 8.539062 38.125 8.539062 42.519531 C 8.539062 46.914062 12.101562 50.472656 16.496094 50.472656 C 20.886719 50.472656 24.449219 46.914062 24.449219 42.519531 Z M 24.449219 42.519531 "/>
<path style=" stroke:none;fill-rule:nonzero;fill:rgb(0%,16.862745%,21.176471%);fill-opacity:1;" d="M 21.882812 42.519531 C 21.882812 35.335938 11.105469 35.335938 11.105469 42.519531 C 11.105469 49.703125 21.882812 49.703125 21.882812 42.519531 Z M 21.882812 42.519531 "/>
<path style=" stroke:none;fill-rule:nonzero;fill:rgb(79.607843%,29.411765%,8.627451%);fill-opacity:1;" d="M 8.539062 24.449219 L 24.449219 24.449219 L 24.449219 8.539062 L 8.539062 8.539062 Z M 8.539062 24.449219 "/>
<path style=" stroke:none;fill-rule:nonzero;fill:rgb(0%,16.862745%,21.176471%);fill-opacity:1;" d="M 21.882812 16.496094 C 21.882812 9.308594 11.105469 9.308594 11.105469 16.496094 C 11.105469 23.679688 21.882812 23.679688 21.882812 16.496094 Z M 21.882812 16.496094 "/>
<path style="fill:none;stroke-width:0.12;stroke-linecap:round;stroke-linejoin:round;stroke:rgb(57.647059%,63.137255%,63.137255%);stroke-opacity:1;stroke-miterlimit:10;" d="M -6.400021 5.200021 L -3.186454 5.200021 " transform="matrix(7.33098,0,0,-7.33098,51.316861,42.519685)"/>
<path style="fill:none;stroke-width:0.12;stroke-linecap:round;stroke-linejoin:round;stroke:rgb(57.647059%,63.137255%,63.137255%);stroke-opacity:1;stroke-miterlimit:10;" d="M -6.400021 1.986454 L -6.400021 5.200021 " transform="matrix(7.33098,0,0,-7.33098,51.316861,42.519685)"/>
<path style="fill:none;stroke-width:0.12;stroke-linecap:round;stroke-linejoin:round;stroke:rgb(57.647059%,63.137255%,63.137255%);stroke-opacity:1;stroke-miterlimit:10;" d="M 6.399896 -5.199979 L 5.328885 -5.199979 " transform="matrix(7.33098,0,0,-7.33098,51.316861,42.519685)"/>
<path style="fill:none;stroke-width:0.12;stroke-linecap:round;stroke-linejoin:round;stroke:rgb(57.647059%,63.137255%,63.137255%);stroke-opacity:1;stroke-miterlimit:10;" d="M 6.399896 -4.128967 L 6.399896 -5.199979 " transform="matrix(7.33098,0,0,-7.33098,51.316861,42.519685)"/>
<path style="fill:none;stroke-width:0.12;stroke-linecap:round;stroke-linejoin:round;stroke:rgb(57.647059%,63.137255%,63.137255%);stroke-opacity:1;stroke-miterlimit:10;" d="M 6.399896 5.200021 L 5.328885 5.200021 " transform="matrix(7.33098,0,0,-7.33098,51.316861,42.519685)"/>
<path style="fill:none;stroke-width:0.12;stroke-linecap:round;stroke-linejoin:round;stroke:rgb(57.647059%,63.137255%,63.137255%);stroke-opacity:1;stroke-miterlimit:10;" d="M 6.399896 4.128476 L 6.399896 5.200021 " transform="matrix(7.33098,0,0,-7.33098,51.316861,42.519685)"/>
<path style="fill:none;stroke-width:0.12;stroke-linecap:round;stroke-linejoin:round;stroke:rgb(57.647059%,63.137255%,63.137255%);stroke-opacity:1;stroke-miterlimit:10;" d="M -6.400021 -5.199979 L -5.328476 -5.199979 " transform="matrix(7.33098,0,0,-7.33098,51.316861,42.519685)"/>
<path style="fill:none;stroke-width:0.12;stroke-linecap:round;stroke-linejoin:round;stroke:rgb(57.647059%,63.137255%,63.137255%);stroke-opacity:1;stroke-miterlimit:10;" d="M -6.400021 -4.128967 L -6.400021 -5.199979 " transform="matrix(7.33098,0,0,-7.33098,51.316861,42.519685)"/>
<path style="fill:none;stroke-width:0.12;stroke-linecap:round;stroke-linejoin:round;stroke:rgb(51.372549%,58.039216%,58.823529%);stroke-opacity:0.5;stroke-miterlimit:10;" d="M -6.400021 1.999775 L -3.199775 5.200021 " transform="matrix(7.33098,0,0,-7.33098,51.316861,42.519685)"/>
<path style="fill:none;stroke-width:0.12;stroke-linecap:round;stroke-linejoin:round;stroke:rgb(51.372549%,58.039216%,58.823529%);stroke-opacity:0.5;stroke-miterlimit:10;" d="M -6.400021 -5.199979 L -6.400021 1.999775 " transform="matrix(7.33098,0,0,-7.33098,51.316861,42.519685)"/>
<path style="fill:none;stroke-width:0.12;stroke-linecap:round;stroke-linejoin:round;stroke:rgb(51.372549%,58.039216%,58.823529%);stroke-opacity:0.5;stroke-miterlimit:10;" d="M 6.399896 -5.199979 L -6.400021 -5.199979 " transform="matrix(7.33098,0,0,-7.33098,51.316861,42.519685)"/>
<path style="fill:none;stroke-width:0.12;stroke-linecap:round;stroke-linejoin:round;stroke:rgb(51.372549%,58.039216%,58.823529%);stroke-opacity:0.5;stroke-miterlimit:10;" d="M 6.399896 5.200021 L 6.399896 -5.199979 " transform="matrix(7.33098,0,0,-7.33098,51.316861,42.519685)"/>
<path style="fill:none;stroke-width:0.12;stroke-linecap:round;stroke-linejoin:round;stroke:rgb(51.372549%,58.039216%,58.823529%);stroke-opacity:0.5;stroke-miterlimit:10;" d="M -3.199775 5.200021 L 6.399896 5.200021 " transform="matrix(7.33098,0,0,-7.33098,51.316861,42.519685)"/>
</g>
</svg>
