<?xml version="1.0" encoding="UTF-8"?>
<svg xmlns="http://www.w3.org/2000/svg" xmlns:xlink="http://www.w3.org/1999/xlink" width="74.24072pt" height="85.03937pt" viewBox="0 0 74.24072 85.03937" version="1.1">
<g id="surface61">
<rect x="0" y="0" width="74.24072" height="85.03937" style="fill:rgb(0%,16.862745%,21.176471%);fill-opacity:1;stroke:none;"/>
<path style="fill:none;stroke-width:0.05;stroke-linecap:round;stroke-linejoin:round;stroke:rgb(14.901961%,54.509804%,82.352941%);stroke-opacity:1;stroke-miterlimit:10;" d="M -2.550033 -2.95001 L 2.549852 -2.95001 L 2.549852 2.950033 L -2.550033 2.950033 Z M -2.550033 -2.95001 " transform="matrix(13.498313,0,0,-13.498313,37.12036,42.519685)"/>
<path style="fill:none;stroke-width:0.05;stroke-linecap:round;stroke-linejoin:round;stroke:rgb(14.901961%,54.509804%,82.352941%);stroke-opacity:1;stroke-miterlimit:10;" d="M 0.000054362 -0.349859 L 0.000054362 0.349882 " transform="matrix(13.498313,0,0,-13.498313,37.12036,42.519685)"/>
<path style="fill:none;stroke-width:0.05;stroke-linecap:round;stroke-linejoin:round;stroke:rgb(14.901961%,54.509804%,82.352941%);stroke-opacity:1;stroke-miterlimit:10;" d="M -0.350105 0.0000113932 L 0.349924 0.0000113932 " transform="matrix(13.498313,0,0,-13.498313,37.12036,42.519685)"/>
<path style="fill:none;stroke-width:0.05;stroke-linecap:round;stroke-linejoin:round;stroke:rgb(14.901961%,54.509804%,82.352941%);stroke-opacity:1;stroke-miterlimit:10;" d="M 0.250086 0.0000113932 C 0.250086 0.333386 -0.249977 0.333386 -0.249977 0.0000113932 C -0.249977 -0.333364 0.250086 -0.333364 0.250086 0.0000113932 " transform="matrix(13.498313,0,0,-13.498313,37.12036,42.519685)"/>
<path style=" stroke:none;fill-rule:nonzero;fill:rgb(79.607843%,29.411765%,8.627451%);fill-opacity:1;" d="M 66.453125 18.863281 C 66.453125 18.117188 65.851562 17.515625 65.105469 17.515625 L 45.582031 17.515625 C 44.835938 17.515625 44.230469 18.117188 44.230469 18.863281 L 44.230469 32.429688 C 44.230469 33.175781 44.835938 33.777344 45.582031 33.777344 L 65.105469 33.777344 C 65.851562 33.777344 66.453125 33.175781 66.453125 32.429688 Z M 66.453125 18.863281 "/>
<path style=" stroke:none;fill-rule:nonzero;fill:rgb(79.607843%,29.411765%,8.627451%);fill-opacity:1;" d="M 66.453125 52.609375 C 66.453125 51.863281 65.851562 51.261719 65.105469 51.261719 L 45.582031 51.261719 C 44.835938 51.261719 44.230469 51.863281 44.230469 52.609375 L 44.230469 66.175781 C 44.230469 66.921875 44.835938 67.523438 45.582031 67.523438 L 65.105469 67.523438 C 65.851562 67.523438 66.453125 66.921875 66.453125 66.175781 Z M 66.453125 52.609375 "/>
<path style=" stroke:none;fill-rule:nonzero;fill:rgb(79.607843%,29.411765%,8.627451%);fill-opacity:1;" d="M 30.007812 52.609375 C 30.007812 51.863281 29.40625 51.261719 28.660156 51.261719 L 9.136719 51.261719 C 8.390625 51.261719 7.785156 51.863281 7.785156 52.609375 L 7.785156 66.175781 C 7.785156 66.921875 8.390625 67.523438 9.136719 67.523438 L 28.660156 67.523438 C 29.40625 67.523438 30.007812 66.921875 30.007812 66.175781 Z M 30.007812 52.609375 "/>
<path style=" stroke:none;fill-rule:nonzero;fill:rgb(79.607843%,29.411765%,8.627451%);fill-opacity:1;" d="M 30.007812 18.863281 C 30.007812 18.117188 29.40625 17.515625 28.660156 17.515625 L 9.136719 17.515625 C 8.390625 17.515625 7.785156 18.117188 7.785156 18.863281 L 7.785156 32.429688 C 7.785156 33.175781 8.390625 33.777344 9.136719 33.777344 L 28.660156 33.777344 C 29.40625 33.777344 30.007812 33.175781 30.007812 32.429688 Z M 30.007812 18.863281 "/>
<path style="fill:none;stroke-width:0.12;stroke-linecap:round;stroke-linejoin:round;stroke:rgb(57.647059%,63.137255%,63.137255%);stroke-opacity:1;stroke-miterlimit:10;" d="M -1.7001 2.050036 L -2.199873 2.050036 " transform="matrix(13.498313,0,0,-13.498313,37.12036,42.519685)"/>
<path style="fill:none;stroke-width:0.12;stroke-linecap:round;stroke-linejoin:round;stroke:rgb(57.647059%,63.137255%,63.137255%);stroke-opacity:1;stroke-miterlimit:10;" d="M -1.7001 2.599873 L -1.7001 2.050036 " transform="matrix(13.498313,0,0,-13.498313,37.12036,42.519685)"/>
<path style="fill:none;stroke-width:0.12;stroke-linecap:round;stroke-linejoin:round;stroke:rgb(57.647059%,63.137255%,63.137255%);stroke-opacity:1;stroke-miterlimit:10;" d="M 1.69992 2.599873 L -1.7001 2.599873 " transform="matrix(13.498313,0,0,-13.498313,37.12036,42.519685)"/>
<path style="fill:none;stroke-width:0.12;stroke-linecap:round;stroke-linejoin:round;stroke:rgb(57.647059%,63.137255%,63.137255%);stroke-opacity:1;stroke-miterlimit:10;" d="M 1.69992 2.050036 L 1.69992 2.599873 " transform="matrix(13.498313,0,0,-13.498313,37.12036,42.519685)"/>
<path style="fill:none;stroke-width:0.12;stroke-linecap:round;stroke-linejoin:round;stroke:rgb(57.647059%,63.137255%,63.137255%);stroke-opacity:1;stroke-miterlimit:10;" d="M -1.7001 -2.60014 L -1.7001 -2.050013 " transform="matrix(13.498313,0,0,-13.498313,37.12036,42.519685)"/>
<path style="fill:none;stroke-width:0.12;stroke-linecap:round;stroke-linejoin:round;stroke:rgb(57.647059%,63.137255%,63.137255%);stroke-opacity:1;stroke-miterlimit:10;" d="M 1.69992 -2.60014 L -1.7001 -2.60014 " transform="matrix(13.498313,0,0,-13.498313,37.12036,42.519685)"/>
<path style="fill:none;stroke-width:0.12;stroke-linecap:round;stroke-linejoin:round;stroke:rgb(57.647059%,63.137255%,63.137255%);stroke-opacity:1;stroke-miterlimit:10;" d="M 1.69992 -2.050013 L 1.69992 -2.60014 " transform="matrix(13.498313,0,0,-13.498313,37.12036,42.519685)"/>
<path style="fill:none;stroke-width:0.12;stroke-linecap:round;stroke-linejoin:round;stroke:rgb(51.372549%,58.039216%,58.823529%);stroke-opacity:0.5;stroke-miterlimit:10;" d="M -1.7001 1.549974 L -0.649911 2.599873 " transform="matrix(13.498313,0,0,-13.498313,37.12036,42.519685)"/>
<path style="fill:none;stroke-width:0.12;stroke-linecap:round;stroke-linejoin:round;stroke:rgb(51.372549%,58.039216%,58.823529%);stroke-opacity:0.5;stroke-miterlimit:10;" d="M -1.7001 -2.60014 L -1.7001 1.549974 " transform="matrix(13.498313,0,0,-13.498313,37.12036,42.519685)"/>
<path style="fill:none;stroke-width:0.12;stroke-linecap:round;stroke-linejoin:round;stroke:rgb(51.372549%,58.039216%,58.823529%);stroke-opacity:0.5;stroke-miterlimit:10;" d="M 1.69992 -2.60014 L -1.7001 -2.60014 " transform="matrix(13.498313,0,0,-13.498313,37.12036,42.519685)"/>
<path style="fill:none;stroke-width:0.12;stroke-linecap:round;stroke-linejoin:round;stroke:rgb(51.372549%,58.039216%,58.823529%);stroke-opacity:0.5;stroke-miterlimit:10;" d="M 1.69992 2.599873 L 1.69992 -2.60014 " transform="matrix(13.498313,0,0,-13.498313,37.12036,42.519685)"/>
<path style="fill:none;stroke-width:0.12;stroke-linecap:round;stroke-linejoin:round;stroke:rgb(51.372549%,58.039216%,58.823529%);stroke-opacity:0.5;stroke-miterlimit:10;" d="M -0.649911 2.599873 L 1.69992 2.599873 " transform="matrix(13.498313,0,0,-13.498313,37.12036,42.519685)"/>
</g>
</svg>
