<?xml version="1.0" encoding="UTF-8"?>
<svg xmlns="http://www.w3.org/2000/svg" xmlns:xlink="http://www.w3.org/1999/xlink" width="119.055118pt" height="85.03937pt" viewBox="0 0 119.055118 85.03937" version="1.1">
<g id="surface1">
<rect x="0" y="0" width="119.055118" height="85.03937" style="fill:rgb(0%,16.862745%,21.176471%);fill-opacity:1;stroke:none;"/>
<path style="fill:none;stroke-width:0.05;stroke-linecap:round;stroke-linejoin:round;stroke:rgb(14.901961%,54.509804%,82.352941%);stroke-opacity:1;stroke-miterlimit:10;" d="M -1.549955 -1.049946 L 1.550057 -1.049946 L 1.550057 1.05007 L -1.549955 1.05007 Z M -1.549955 -1.049946 " transform="matrix(34.015748,0,0,-34.015748,59.527559,42.519685)"/>
<path style="fill:none;stroke-width:0.05;stroke-linecap:round;stroke-linejoin:round;stroke:rgb(14.901961%,54.509804%,82.352941%);stroke-opacity:1;stroke-miterlimit:10;" d="M -0.00000632957 -0.350017 L -0.00000632957 0.350026 " transform="matrix(34.015748,0,0,-34.015748,59.527559,42.519685)"/>
<path style="fill:none;stroke-width:0.05;stroke-linecap:round;stroke-linejoin:round;stroke:rgb(14.901961%,54.509804%,82.352941%);stroke-opacity:1;stroke-miterlimit:10;" d="M -0.350028 0.00000452112 L 0.350015 0.00000452112 " transform="matrix(34.015748,0,0,-34.015748,59.527559,42.519685)"/>
<path style="fill:none;stroke-width:0.05;stroke-linecap:round;stroke-linejoin:round;stroke:rgb(14.901961%,54.509804%,82.352941%);stroke-opacity:1;stroke-miterlimit:10;" d="M 0.249993 0.00000452112 C 0.249993 0.138038 0.138027 0.250004 -0.00000632957 0.250004 C -0.13804 0.250004 -0.250005 0.138038 -0.250005 0.00000452112 C -0.250005 -0.138029 -0.13804 -0.249995 -0.00000632957 -0.249995 C 0.138027 -0.249995 0.249993 -0.138029 0.249993 0.00000452112 " transform="matrix(34.015748,0,0,-34.015748,59.527559,42.519685)"/>
<path style=" stroke:none;fill-rule:nonzero;fill:rgb(79.607843%,29.411765%,8.627451%);fill-opacity:1;" d="M 102.769531 28.5 C 102.769531 26.621094 101.246094 25.097656 99.367188 25.097656 L 74.113281 25.097656 C 72.234375 25.097656 70.710938 26.621094 70.710938 28.5 L 70.710938 56.539062 C 70.710938 58.417969 72.234375 59.941406 74.113281 59.941406 L 99.367188 59.941406 C 101.246094 59.941406 102.769531 58.417969 102.769531 56.539062 Z M 102.769531 28.5 "/>
<path style=" stroke:none;fill-rule:nonzero;fill:rgb(79.607843%,29.411765%,8.627451%);fill-opacity:1;" d="M 48.34375 28.5 C 48.34375 26.621094 46.820312 25.097656 44.941406 25.097656 L 19.6875 25.097656 C 17.808594 25.097656 16.285156 26.621094 16.285156 28.5 L 16.285156 56.539062 C 16.285156 58.417969 17.808594 59.941406 19.6875 59.941406 L 44.941406 59.941406 C 46.820312 59.941406 48.34375 58.417969 48.34375 56.539062 Z M 48.34375 28.5 "/>
<path style="fill:none;stroke-width:0.12;stroke-linecap:round;stroke-linejoin:round;stroke:rgb(57.647059%,63.137255%,63.137255%);stroke-opacity:1;stroke-miterlimit:10;" d="M 0.899967 0.700048 L -0.89998 0.700048 " transform="matrix(34.015748,0,0,-34.015748,59.527559,42.519685)"/>
<path style="fill:none;stroke-width:0.12;stroke-linecap:round;stroke-linejoin:round;stroke:rgb(57.647059%,63.137255%,63.137255%);stroke-opacity:1;stroke-miterlimit:10;" d="M 0.899967 -0.700039 L -0.89998 -0.700039 " transform="matrix(34.015748,0,0,-34.015748,59.527559,42.519685)"/>
<path style="fill:none;stroke-width:0.12;stroke-linecap:round;stroke-linejoin:round;stroke:rgb(51.372549%,58.039216%,58.823529%);stroke-opacity:0.5;stroke-miterlimit:10;" d="M -0.89998 -0.499994 L 0.899967 -0.499994 L 0.899967 0.500003 L -0.89998 0.500003 Z M -0.89998 -0.499994 " transform="matrix(34.015748,0,0,-34.015748,59.527559,42.519685)"/>
</g>
</svg>
